<?xml version="1.0" encoding="UTF-8"?>
<svg viewBox="0 0 448 512" xmlns="http://www.w3.org/2000/svg">
<path d="m224 224a32 32 0 1 0 32.008 32 32.064 32.064 0 0 0-32.008-32zm214.17-96c-10.877-19.5-40.51-50.75-116.28-41.875-21.504-51.25-54.262-86.125-97.897-86.125s-76.391 34.875-97.897 86.125c-75.766-8.75-105.4 22.375-116.27 41.875-16.379 29.375-15.004 73.125 25.129 128-40.133 54.875-41.508 98.625-25.129 128 29.131 52.375 101.65 43.625 116.27 41.875 21.506 51.25 54.262 86.125 97.897 86.125s76.393-34.875 97.897-86.125c14.629 1.75 87.145 10.5 116.28-41.875 16.379-29.375 15.004-73.125-25.131-128 40.135-54.875 41.51-98.625 25.131-128zm-374.83 224c-4-7.25-0.125-24.75 15.004-48.25 6.877 6.5 14.129 12.875 21.881 19.125 1.625 13.75 4 27.125 6.75 40.125-24.629 0.875-39.883-4.375-43.635-11zm36.885-162.88c-7.752 6.25-15.004 12.625-21.881 19.125-15.129-23.5-19.004-41-15.004-48.25 3.377-6.125 16.379-11.5 37.885-11.5 1.75 0 3.875 0.375 5.75 0.375-2.875 13.375-5.125 26.75-6.75 40.25zm123.78-125.12c9.502 0 22.256 13.5 33.883 37.25-11.252 3.75-22.504 8-33.883 12.875-11.377-4.875-22.629-9.125-33.883-12.875 11.629-23.75 24.381-37.25 33.883-37.25zm0 384c-9.502 0-22.254-13.5-33.883-37.25 11.254-3.75 22.506-8 33.883-12.875 11.379 4.875 22.631 9.125 33.883 12.875-11.627 23.75-24.381 37.25-33.883 37.25zm0-112a80 80 0 1 1 80-80 80 80 0 0 1-80 80zm160.66 16c-3.625 6.625-19.004 11.875-43.635 11 2.752-13 5.127-26.375 6.752-40.125 7.752-6.25 15.004-12.625 21.879-19.125 15.129 23.5 19.004 41 15.004 48.25zm-15.004-143.75c-6.875-6.5-14.127-12.875-21.879-19.125-1.625-13.5-3.875-26.875-6.752-40.25 1.875 0 4.002-0.375 5.752-0.375 21.504 0 34.508 5.375 37.883 11.5 4 7.25 0.125 24.75-15.004 48.25z"/>
</svg>
