<?xml version="1.0" encoding="UTF-8"?>
<svg viewBox="0 0 512 512" xmlns="http://www.w3.org/2000/svg">
<path d="m256 8c-136.97 0-248 111.03-248 248s111.03 248 248 248 248-111.03 248-248-111.03-248-248-248zm117.13 346.75c-1.592 1.867-39.776 45.731-109.85 45.731-84.692 0-144.48-63.26-144.48-145.57 0-81.303 62.004-143.4 143.76-143.4 66.957 0 101.96 37.315 103.42 38.904a12 12 0 0 1 1.238 14.623l-22.38 34.655c-4.049 6.267-12.774 7.351-18.234 2.295-0.233-0.214-26.529-23.88-61.88-23.88-46.116 0-73.916 33.575-73.916 76.082 0 39.602 25.514 79.692 74.277 79.692 38.697 0 65.28-28.338 65.544-28.625 5.132-5.565 14.059-5.033 18.508 1.053l24.547 33.572a12.001 12.001 0 0 1-0.553 14.866z"/>
</svg>
