<?xml version="1.0" encoding="UTF-8"?>
<svg viewBox="0 0 512 512" xmlns="http://www.w3.org/2000/svg">
<path d="m504.97 199.36-22.627-22.627c-9.373-9.373-24.569-9.373-33.941 0l-5.657 5.657-113.14-113.14 5.657-5.657c9.373-9.373 9.373-24.569 0-33.941l-22.627-22.628c-9.373-9.373-24.569-9.373-33.941 0l-124.45 124.45c-9.373 9.373-9.373 24.569 0 33.941l22.627 22.627c9.373 9.373 24.569 9.373 33.941 0l5.657-5.657 39.598 39.598-81.04 81.04-5.657-5.657c-12.497-12.497-32.758-12.497-45.255 0l-114.74 114.75c-12.497 12.497-12.497 32.758 0 45.255l45.255 45.255c12.497 12.497 32.758 12.497 45.255 0l114.74-114.74c12.497-12.497 12.497-32.758 0-45.255l-5.657-5.657 81.04-81.04 39.598 39.598-5.657 5.657c-9.373 9.373-9.373 24.569 0 33.941l22.627 22.627c9.373 9.373 24.569 9.373 33.941 0l124.45-124.45c9.372-9.372 9.372-24.568 0-33.941z"/>
</svg>
