<?xml version="1.0" encoding="UTF-8"?>
<svg viewBox="0 0 512 512" xmlns="http://www.w3.org/2000/svg">
<path d="m510.9 145.27-68.296 286.82a104 104 0 0 1-101.17 79.906h-127.36a135.97 135.97 0 0 1-93.185-36.953l-108.3-101.92a39.992 39.992 0 0 1 54.812-58.25l60.593 57.025a283.25 283.25 0 0 0-11.67-80.467l-42.689-144.08a40.006 40.006 0 1 1 76.718-22.719l37.155 125.39a8.3311 8.3311 0 0 0 16.057-4.4414l-50.305-195.64a39.996 39.996 0 1 1 77.468-19.937l56.095 218.16a10.42 10.42 0 0 0 20.3-0.501l37.682-183.7a40.052 40.052 0 0 1 51.302-30.089c19.861 6.2998 30.863 27.674 26.676 48.085l-33.839 164.97a7.5517 7.5517 0 0 0 14.744 3.2666l29.397-123.46a39.994 39.994 0 1 1 77.812 18.531z"/>
</svg>
