<?xml version="1.0" encoding="UTF-8"?>
<svg viewBox="0 0 576 512" xmlns="http://www.w3.org/2000/svg">
<path d="m535.95 352c-42.641 94.172-137.64 160-247.98 160q-6.3984 0-12.844-0.29688c-103.97-4.7656-193.86-69.469-235.11-159.7h39.922l-58.609-58.594a264.83 264.83 0 0 1-5.1094-39.422 273.67 273.67 0 0 1 0.5-29.984h47.219l-41.391-41.375a269.8 269.8 0 0 1 107.97-162.08 16.064 16.064 0 0 1 9.2813-3 16.363 16.363 0 0 1 13.5 7.25 16.027 16.027 0 0 1 1.625 15.094 138.39 138.39 0 0 0-9.8438 51.266c0 45.109 21.047 86.578 57.719 113.73a16.3 16.3 0 0 1 1.2031 25.391c-26.547 23.984-41.172 56.5-41.172 91.578 0 60.031 42.953 110.28 99.891 121.92l2.5-65.266-27.156 18.484a8.3391 8.3391 0 0 1-10-0.75 8.025 8.025 0 0 1-1.3906-9.9375l20.125-33.766-42.063-8.7344a7.9898 7.9898 0 0 1 0-15.656l42.063-8.7188-20.109-33.734a7.9912 7.9912 0 0 1 11.359-10.719l30.391 20.656 11.516-287.97a7.9714 7.9714 0 0 1 8-7.6719h0.04687a8.0206 8.0206 0 0 1 7.9531 7.7031l11.531 287.92 30.391-20.672a8.0833 8.0833 0 0 1 10 0.8125 7.9987 7.9987 0 0 1 1.3906 9.9063l-20.141 33.766 42.078 8.7344a7.9937 7.9937 0 0 1 0 15.656l-42.078 8.7188 20.109 33.734a7.9779 7.9779 0 0 1-1.3281 9.9219 8.2574 8.2574 0 0 1-10.031 0.79688l-27.172-18.469 2.5 65.344c48.484-9.4062 87.578-48.156 97.313-96.5a123.53 123.53 0 0 0-38.563-117.08 16.306 16.306 0 0 1 1.2031-25.422c36.656-27.172 57.688-68.609 57.688-113.73a138.02 138.02 0 0 0-9.8594-51.312 15.981 15.981 0 0 1 1.6094-15.094 16.369 16.369 0 0 1 13.5-7.2344 16.025 16.025 0 0 1 9.25 2.9844 271.27 271.27 0 0 1 107.91 162.28l-41.25 41.234h46.953c0.35938 5.7656 1.0469 11.453 1.0469 17.266a270.09 270.09 0 0 1-5.125 51.859l-58.891 58.875z"/>
</svg>
