<?xml version="1.0" encoding="UTF-8"?>
<svg viewBox="0 0 448 512" xmlns="http://www.w3.org/2000/svg">
<path d="m438.41 377.59c-3.2031 12.812-3.2031 57.609 0 73.609q9.586 9.586 9.5938 19.203v16c0 16-12.797 25.594-25.594 25.594h-326.41c-54.406 0-96-41.594-96-96v-320c0-54.406 41.594-96 96-96h326.41c16 0 25.594 9.5938 25.594 25.594v332.81q0 14.391-9.5938 19.188zm-57.609 6.4062h-284.8c-16 0-32 12.797-32 32s12.797 32 32 32h284.8zm-252.78-207.98c0 0.51563 0.14063 0.98438 0.14063 1.5l37.109 32.469a7.9995 7.9995 0 0 1-5.2656 14.016h-0.01562a9.1768 9.1768 0 0 1-5.25-1.9844l-23.594-20.641c11.547 49.578 55.766 86.625 108.86 86.625s97.312-37.047 108.88-86.625l-23.594 20.641a8.0252 8.0252 0 0 1-5.2656 1.9688h-0.01562a9.1464 9.1464 0 0 1-6.0156-2.7188 9.2651 9.2651 0 0 1-1.9844-5.2656 9.097 9.097 0 0 1 2.7344-6.0156l37.109-32.469c0.01563-0.53124 0.15625-1 0.15625-1.5156 0-11.047-2.0938-21.516-5.0625-31.594l-21.266 21.25a8.0047 8.0047 0 0 1-11.328-11.312l26.422-26.406a111.82 111.82 0 0 0-46.359-49.266 63.023 63.023 0 0 1-14.062 82.641 55.838 55.838 0 0 1-28.719 93.422l-1.4219-34.281 12.672 8.625a3.967 3.967 0 0 0 2.25 0.6875 3.9806 3.9806 0 0 0 3.4375-6.0312l-8.5312-14.312 17.906-3.7188a4.0065 4.0065 0 0 0 0-7.8437l-17.906-3.7188 8.5312-14.312a3.9806 3.9806 0 0 0-3.4375-6.0312 4.726 4.726 0 0 0-2.25 0.67187l-14.188 9.6562-4.6875-112.3a4.0039 4.0039 0 0 0-8 0l-4.625 110.81-12-8.1562a4.003 4.003 0 0 0-5.6875 5.3594l8.5313 14.312-17.906 3.7188a3.9969 3.9969 0 0 0 0 7.8281l17.906 3.7344-8.5313 14.297a4.7247 4.7247 0 0 0-0.56249 2.0469 4.5955 4.5955 0 0 0 1.25 2.9062 4.0106 4.0106 0 0 0 2.75 1.0938 4.0902 4.0902 0 0 0 2.25-0.6875l10.359-7.0469-1.3594 32.719a55.864 55.864 0 0 1-28.719-93.453 63.011 63.011 0 0 1-14.047-82.656 111.93 111.93 0 0 0-46.375 49.266l26.422 26.422a7.9992 7.9992 0 0 1-11.312 11.312l-21.266-21.266c-2.9844 10.094-5.0781 20.562-5.0625 31.625z"/>
</svg>
