<?xml version="1.0" encoding="UTF-8"?>
<svg viewBox="0 0 512 512" xmlns="http://www.w3.org/2000/svg">
<path d="m512 176c0 97.202-78.798 176-176 176-11.22 0-22.19-1.062-32.827-3.069l-24.012 27.014a23.999 23.999 0 0 1-17.938 8.055h-37.223v40c0 13.255-10.745 24-24 24h-40v40c0 13.255-10.745 24-24 24h-112c-13.255 0-24-10.745-24-24v-78.059c0-6.365 2.529-12.47 7.029-16.971l161.8-161.8c-5.723-17.354-8.831-35.897-8.831-55.168 0-97.202 78.797-176 176-176 97.489-1e-3 176 78.511 176 176zm-176-48.001c0 26.51 21.49 48 48 48s48-21.49 48-48-21.49-48-48-48-48 21.49-48 48z"/>
</svg>
