<?xml version="1.0" encoding="UTF-8"?>
<svg viewBox="0 0 512 512" xmlns="http://www.w3.org/2000/svg">
<path d="m256 8c-136.97 0-248 111.03-248 248s111.03 248 248 248 248-111.03 248-248-111.03-248-248-248zm173.7 119.56-63.399 63.399c-10.987-18.559-26.67-34.252-45.255-45.255l63.399-63.399a218.4 218.4 0 0 1 45.255 45.255zm-173.7 224.44c-53.019 0-96-42.981-96-96s42.981-96 96-96 96 42.981 96 96-42.981 96-96 96zm-128.44-269.7 63.399 63.399c-18.559 10.987-34.252 26.67-45.255 45.255l-63.399-63.399a218.37 218.37 0 0 1 45.255-45.255zm-45.255 302.14 63.399-63.399c10.987 18.559 26.67 34.252 45.255 45.255l-63.399 63.399a218.4 218.4 0 0 1-45.255-45.255zm302.14 45.255-63.399-63.399c18.559-10.987 34.252-26.67 45.255-45.255l63.399 63.399a218.4 218.4 0 0 1-45.255 45.255z"/>
</svg>
