<?xml version="1.0" encoding="UTF-8"?>
<svg viewBox="0 0 512 512" xmlns="http://www.w3.org/2000/svg">
<path d="m511.33 20.803c-11.608 38.703-34.307 111.7-61.303 187.7 6.9989 2.0937 13.404 4 18.607 5.5937a16.062 16.062 0 0 1 9.4985 22.906c-22.106 42.296-82.69 152.8-142.48 214.4-0.99984 1.0937-1.9997 2.5-2.9995 3.5a194.83 194.83 0 1 1-275.57-275.5c0.99985-1 2.4059-2 3.4995-3 61.6-59.905 171.97-120.4 214.37-142.5a16.058 16.058 0 0 1 22.903 9.4999c1.5935 5.0937 3.4995 11.594 5.5929 18.594 75.895-27 148.98-49.702 187.67-61.296a16.183 16.183 0 0 1 20.2 20.093zm-191.38 299.2a127.98 127.98 0 1 0-127.98 128 127.98 127.98 0 0 0 127.98-128zm-127.98-32a31.995 31.995 0 1 1-31.995-32 31.959 31.959 0 0 1 31.995 32zm31.995 79.999a15.998 15.998 0 1 1-15.998-16 16.05 16.05 0 0 1 15.998 16z"/>
</svg>
