<?xml version="1.0" encoding="UTF-8"?>
<svg viewBox="0 0 512 512" xmlns="http://www.w3.org/2000/svg">
<path d="m505.12 19.094c-1.1894-5.5312-6.6582-11-12.207-12.188-32.197-6.9062-57.406-6.9062-82.506-6.9062-103.23 0-165.14 55.203-211.36 128h-104.21c-16.348 0.01562-35.557 11.875-42.887 26.484l-49.435 98.812a28.4 28.4 0 0 0-2.5156 10.703 24.009 24.009 0 0 0 24.006 24h103.81l-22.475 22.469c-11.365 11.361-12.996 32.258 0 45.25l50.904 50.906c11.156 11.188 32.156 13.156 45.277 0l22.475-22.469v103.84a24.009 24.009 0 0 0 24.006 24 28.559 28.559 0 0 0 10.707-2.5156l98.728-49.391c14.629-7.2969 26.508-26.5 26.508-42.859v-104.44c72.598-46.312 128.03-108.41 128.03-211.09 0.09377-25.203 0.09377-50.406-6.8613-82.609zm-121.08 148.91a40 40 0 1 1 40.01-40 40.023 40.023 0 0 1-40.01 40z"/>
</svg>
