<?xml version="1.0" encoding="UTF-8"?>
<svg viewBox="0 0 448 512" xmlns="http://www.w3.org/2000/svg">
<path d="m400 32h-352c-26.51 0-48 21.49-48 48v352c0 26.51 21.49 48 48 48h352c26.51 0 48-21.49 48-48v-352c0-26.51-21.49-48-48-48zm-288 384c-26.51 0-48-21.49-48-48s21.49-48 48-48 48 21.49 48 48-21.49 48-48 48zm157.53 0h-34.335c-6.011 0-11.051-4.636-11.442-10.634-5.214-80.05-69.243-143.92-149.12-149.12-5.997-0.39-10.633-5.431-10.633-11.441v-34.335c0-6.535 5.468-11.777 11.994-11.425 110.55 5.974 199 94.536 204.96 204.96 0.352 6.526-4.89 11.994-11.425 11.994zm103.03 0h-34.334c-6.161 0-11.175-4.882-11.427-11.038-5.598-136.54-115.2-246.16-251.76-251.76-6.157-0.253-11.039-5.267-11.039-11.428v-34.334c0-6.454 5.338-11.664 11.787-11.432 167.83 6.025 302.21 141.19 308.2 308.2 0.232 6.449-4.978 11.787-11.432 11.787z"/>
</svg>
