<?xml version="1.0" encoding="UTF-8"?>
<svg viewBox="0 0 512 512" xmlns="http://www.w3.org/2000/svg">
<path d="m305.45 462.59c7.3916 7.2979 6.1883 20.097-3.0004 25.004-77.713 41.803-176.73 29.91-242.34-35.708-65.602-65.603-77.51-164.52-35.692-242.33 4.8912-9.095 17.69-10.298 25.003-3.0004l116.81 116.81 27.394-27.395c-0.68759-2.6097-1.594-5.0007-1.594-7.8136a32.004 32.004 0 1 1 32.004 32.005c-2.7972 0-5.2038-0.89075-7.7979-1.594l-27.41 27.41zm206.53-159.52a16.103 16.103 0 0 1-16.002 17.002h-32.113a15.97 15.97 0 0 1-15.893-15.002c-7.501-129.52-111.51-234.53-240.94-241.53a15.845 15.845 0 0 1-15.002-15.909v-31.598a16.094 16.094 0 0 1 17.002-16.002c163.22 8.595 294.44 139.82 302.94 303.04zm-96.012-0.29692a16.211 16.211 0 0 1-16.111 17.299h-32.207a16.069 16.069 0 0 1-15.893-14.705c-6.9071-77.011-68.118-138.91-144.92-145.22a15.94 15.94 0 0 1-14.799-15.893v-32.114a16.134 16.134 0 0 1 17.299-16.096c110.12 8.5012 198.23 96.607 206.64 206.73z"/>
</svg>
