<?xml version="1.0" encoding="UTF-8"?>
<svg viewBox="0 0 512 512" xmlns="http://www.w3.org/2000/svg">
<path d="m502.61 310.04-96.704 96.716a31.882 31.882 0 0 1-45.008 0l-80.326-80.417-9.8923 9.9076a190.56 190.56 0 0 1-5.4072 168.52c-4.5008 8.5012-16.393 9.595-23.207 2.7972l-107.52-107.51-17.8 17.799c0.70324 2.6097 1.6096 5.0007 1.6096 7.7979a32.005 32.005 0 1 1-32.005-32.004c2.7974 0 5.1884 0.90637 7.7982 1.6096l17.8-17.799-107.52-107.51c-6.798-6.8134-5.7041-18.612 2.7974-23.206a190.58 190.58 0 0 1 168.53-5.407l9.7985-9.7982-80.311-80.417a32.002 32.002 0 0 1 0-45.1l96.719-96.716a31.626 31.626 0 0 1 22.504-9.2981 32 32 0 0 1 22.598 9.2981l80.326 80.308 47.805-47.897a33.608 33.608 0 0 1 47.508 0l47.508 47.506a33.633 33.633 0 0 1 0 47.506l-47.805 47.897 80.311 80.417a31.789 31.789 0 0 1-0.10939 45.006zm-283.05-112.61 73.825-73.823-68.918-68.9-73.809 73.807zm237.74 90.106-68.902-68.916-73.825 73.823 68.918 68.9z"/>
</svg>
