<?xml version="1.0" encoding="UTF-8"?>
<svg viewBox="0 0 512 512" xmlns="http://www.w3.org/2000/svg">
<path d="m304.08 405.91c4.686 4.686 4.686 12.284 0 16.971l-44.674 44.674c-59.263 59.262-155.69 59.266-214.96 0-59.264-59.265-59.264-155.7 0-214.96l44.675-44.675c4.686-4.686 12.284-4.686 16.971 0l39.598 39.598c4.686 4.686 4.686 12.284 0 16.971l-44.675 44.674c-28.072 28.073-28.072 73.75 0 101.82 28.072 28.072 73.75 28.073 101.82 0l44.674-44.674c4.686-4.686 12.284-4.686 16.971 0l39.597 39.598zm-56.568-260.22c4.686 4.686 12.284 4.686 16.971 0l44.674-44.674c28.072-28.075 73.75-28.073 101.82 0 28.072 28.073 28.072 73.75 0 101.82l-44.675 44.674c-4.686 4.686-4.686 12.284 0 16.971l39.598 39.598c4.686 4.686 12.284 4.686 16.971 0l44.675-44.675c59.265-59.265 59.265-155.7 0-214.96-59.266-59.264-155.7-59.264-214.96 0l-44.674 44.674c-4.686 4.686-4.686 12.284 0 16.971l39.597 39.598zm234.83 359.28 22.627-22.627c9.373-9.373 9.373-24.569 0-33.941l-441.37-441.37c-9.373-9.373-24.569-9.373-33.941 0l-22.628 22.628c-9.373 9.373-9.373 24.569 0 33.941l441.37 441.37c9.373 9.372 24.569 9.372 33.941 0z"/>
</svg>
