<?xml version="1.0" encoding="UTF-8"?>
<svg viewBox="0 0 512 512" xmlns="http://www.w3.org/2000/svg">
<path d="m260.35 254.88-128.82-221.78a2.208 2.208 0 0 0-3.829 9e-3l-127.41 221.78a2.234 2.234 0 0 0 0 2.235l128.82 221.78a2.208 2.208 0 0 0 3.83-9e-3l127.41-221.78a2.239 2.239 0 0 0-5e-3 -2.235zm39.078-25.713a2.19 2.19 0 0 0 1.9 1.111h66.509a2.226 2.226 0 0 0 1.9-3.341l-110.62-193.82a2.187 2.187 0 0 0-1.9-1.111h-66.508a2.226 2.226 0 0 0-1.9 3.341zm212.27 25.721-126.8-221.77a2.2 2.2 0 0 0-1.91-1.112h-66.6a2.226 2.226 0 0 0-1.906 3.34l126.17 220.66-126.17 220.66a2.226 2.226 0 0 0 1.906 3.34h66.6a2.2 2.2 0 0 0 1.906-1.112l126.81-221.77a2.243 2.243 0 0 0 0-2.228zm-145.68 30.031h-66.508a2.187 2.187 0 0 0-1.9 1.111l-108.8 190.63a2.226 2.226 0 0 0 1.9 3.341h66.509a2.187 2.187 0 0 0 1.9-1.111l108.8-190.63a2.226 2.226 0 0 0-1.901-3.341z"/>
</svg>
