<?xml version="1.0" encoding="UTF-8"?>
<svg viewBox="0 0 448 512" xmlns="http://www.w3.org/2000/svg">
<path d="m422.56 159.71a27.379 27.379 0 0 0-13.866-23.337 26.42 26.42 0 0 0-26.211 0.133l-308.54 178.14v-138.39a11.955 11.955 0 0 1 6.047-10.34l138.08-79.713a12.153 12.153 0 0 1 11.922 0.025l32.656 18.853-150.06 86.637v56l247.06-142.64-118.51-68.407c-10.992-6.129-22.3-6.255-33.8-0.27l-164.6 95.026c-10.634 6.12-16.771 16.39-17.29 29.124v191.5c0.17 10.135 5.08 18.672 13.474 23.428a27.037 27.037 0 0 0 26.736-0.045l308.41-178.07v138.28a11.976 11.976 0 0 1-5.92 10.368l-138.11 79.745a12.175 12.175 0 0 1-11.937 0.062l-32.723-18.9 150.05-86.627v-56l-247.05 142.63 118.79 68.583a33.88 33.88 0 0 0 34.25-0.327l164.53-94.995c10.746-6.631 16.649-17.118 16.624-29.528z"/>
</svg>
