<?xml version="1.0" encoding="UTF-8"?>
<svg viewBox="0 0 512 512" xmlns="http://www.w3.org/2000/svg">
<path d="m483.05 159.71c10.855-24.575 21.424-60.438 21.424-87.871 0-72.722-79.641-98.371-209.67-38.577-107.63-7.181-211.22 73.67-237.1 186.46 30.852-34.862 78.271-82.298 121.98-101.16-54.275 48.293-100.55 109.44-135.69 173.17-20.746 37.926-43.992 99.215-43.992 145.02 0 98.575 92.854 86.5 180.25 42.006 31.423 15.43 66.559 15.573 101.7 15.573 97.124 0 184.25-54.294 216.81-146.02h-120.83c-52.509 88.593-196.82 52.996-196.82-47.436h328.79c6.407-43.581-1.655-95.715-26.851-141.16zm-418.49 187.17c17.711 51.15 53.703 95.871 100.27 123.3-88.741 48.94-173.27 29.096-100.27-123.3zm115.98-108.87c2-55.151 50.276-94.871 103.98-94.871 53.418 0 101.98 39.72 103.98 94.871h-207.96zm184.54-187.6c21.425-10.287 48.563-22.003 72.558-22.003 31.422 0 54.274 21.717 54.274 53.722 0 20.003-7.427 49.007-14.569 67.867-26.28-42.292-65.986-81.584-112.26-99.586z"/>
</svg>
