<?xml version="1.0" encoding="UTF-8"?>
<svg viewBox="0 0 512 512" xmlns="http://www.w3.org/2000/svg">
<path d="m498.25 234.22c-1.208-10.34-1.7-20.826-3.746-31a310.31 310.31 0 0 0-9.622-36.6 184.07 184.07 0 0 0-30.874-57.5 251.15 251.15 0 0 0-18.818-21.689 237.36 237.36 0 0 0-47.113-36.116 240.8 240.8 0 0 0-56.723-24.668c-11.018-3.1-22.272-5.431-33.515-7.615-6.78-1.314-13.749-1.667-20.627-2.482-0.316-0.036-0.6-0.358-0.9-0.553q-16.143 9e-3 -32.288 6e-3c-2.41 0.389-4.808 0.925-7.236 1.15a179.33 179.33 0 0 0-34.256 7.1 221.5 221.5 0 0 0-39.768 16.355 281.38 281.38 0 0 0-38.08 24.158c-6.167 4.61-12.268 9.36-17.974 14.518-10.173 9.207-20.372 18.433-29.927 28.268a243.88 243.88 0 0 0-33.648 43.95 206.49 206.49 0 0 0-20.494 44.6 198.2 198.2 0 0 0-7.691 34.759 201.13 201.13 0 0 0-1.552 35.521 299.72 299.72 0 0 0 4.425 40.24 226.86 226.86 0 0 0 16.73 53.3 210.54 210.54 0 0 0 24 39.528 213.59 213.59 0 0 0 26.358 28.416 251.31 251.31 0 0 0 41.787 30.586 287.83 287.83 0 0 0 55.9 25.277 269.5 269.5 0 0 0 40.641 9.835c6.071 1.01 12.275 1.253 18.412 1.873a4.149 4.149 0 0 1 1.19 0.56h32.289c2.507-0.389 5-0.937 7.527-1.143 16.336-1.332 32.107-5.335 47.489-10.717a219.99 219.99 0 0 0 48.952-23.818c9.749-6.447 19.395-13.077 28.737-20.1 5.785-4.348 10.988-9.5 16.3-14.457 3.964-3.7 7.764-7.578 11.51-11.5a232.16 232.16 0 0 0 31.427-41.639c9.542-16.045 17.355-32.905 22.3-50.926 2.859-10.413 4.947-21.045 7.017-31.652 1.032-5.279 1.251-10.723 1.87-16.087 0.036-0.317 0.358-0.6 0.552-0.9v-37.056a9.757 9.757 0 0 1-0.561-1.782zm-161.12-1.15s-16.572-2.98-28.47-2.98c-27.2 0-33.57 14.9-33.57 37.04v93.667h-73.513v-190.74h73.518v31.931c8.924-26.822 26.771-36.189 62.04-36.189z"/>
</svg>
