<?xml version="1.0" encoding="UTF-8"?>
<svg viewBox="0 0 576 512" xmlns="http://www.w3.org/2000/svg">
<path d="m284.05 224.8a34.114 34.114 0 1 0 34.317 34.113 34.217 34.217 0 0 0-34.317-34.113zm-110.45 0a34.114 34.114 0 1 0 34.317 34.113 34.217 34.217 0 0 0-34.313-34.113zm220.92 0a34.114 34.114 0 1 0 34.317 34.113 34.215 34.215 0 0 0-34.317-34.113zm153.81-55.319c-15.535-24.172-37.31-45.57-64.681-63.618-52.886-34.817-122.37-54-195.67-54a405.98 405.98 0 0 0-72.032 6.357 238.52 238.52 0 0 0-49.51-36.588c-66.753-33.332-125.58-20.921-155.3-10.211a14.291 14.291 0 0 0-5.555 23.361c20.962 21.676 55.642 64.518 47.12 103.47-33.142 33.9-51.112 74.776-51.112 117.34 0 43.372 17.97 84.248 51.112 118.15 8.526 38.956-26.154 81.816-47.116 103.49a14.284 14.284 0 0 0 5.555 23.34c29.724 10.709 88.549 23.147 155.32-10.2a238.68 238.68 0 0 0 49.51-36.589 405.97 405.97 0 0 0 72.027 6.361c73.313 0 142.8-19.159 195.67-53.975 27.371-18.049 49.145-39.426 64.679-63.619 17.309-26.923 26.07-55.916 26.07-86.125-0.022-31.021-8.782-59.991-26.09-86.936zm-263.34 240.42a345.65 345.65 0 0 1-89.446-11.5l-20.129 19.393a184.37 184.37 0 0 1-37.138 27.585 145.77 145.77 0 0 1-52.522 14.87c0.983-1.771 1.881-3.563 2.842-5.356q30.258-55.68 16.325-100.08c-32.992-25.962-52.778-59.2-52.778-95.4 0-83.1 104.25-150.47 232.85-150.47s232.87 67.373 232.87 150.47c0 83.111-104.25 150.49-232.87 150.49z"/>
</svg>
