<?xml version="1.0" encoding="UTF-8"?>
<svg viewBox="0 0 512 512" xmlns="http://www.w3.org/2000/svg">
<path d="m462.8 322.37c56.211 64.308 4.162 157.63-91.855 157.63-39.602 0-78.824-17.687-100.14-50.04-6.887 0.356-22.702 0.356-29.59 0-21.364 32.421-60.624 50.04-100.14 50.04-95.49 0-148.35-92.996-91.855-157.63-79.139-131.85 31.265-290.37 206.79-290.37 175.63 0 285.87 158.63 206.79 290.37zm-339.65-82.972h41.529v-58.075h-41.529v58.075zm217.18 86.072v-23.839c-60.506 20.915-132.36 9.198-187.59-33.971l0.246 24.897c51.101 46.367 131.75 57.875 187.34 32.913zm-150.75-86.072h166.06v-58.075h-166.06v58.075z"/>
</svg>
